<svg width="208" height="208" viewBox="0 0 208 208" fill="none" xmlns="http://www.w3.org/2000/svg">
<rect width="208" height="208" rx="50" fill="white"/>
<rect x="128.315" y="11.2567" width="135.167" height="135.167" rx="24" transform="rotate(60 128.315 11.2567)" fill="#181818"/>
<g clip-path="url(#clip0_202_3)">
<path d="M147.043 138.045C144.65 138.334 137.73 127.126 137.73 127.126C137.73 133.616 134.381 142.084 127.133 148.199C130.629 149.274 138.517 152.167 136.641 155.325C135.122 157.881 110.586 156.957 103.503 156.161C96.4195 156.957 71.8837 157.881 70.365 155.325C68.4874 152.168 76.3681 149.277 79.8691 148.2C72.62 142.085 69.2698 133.616 69.2698 127.126C69.2698 127.126 62.35 138.334 59.9575 138.045C58.8428 137.911 57.3784 131.908 61.8979 117.403C64.0279 110.566 66.4638 104.883 70.2313 95.5039C69.5971 71.3021 79.6235 51.0012 103.5 51C127.111 51.0012 137.369 70.9025 136.769 95.5041C140.53 104.867 142.978 110.586 145.103 117.403C149.621 131.908 148.157 137.91 147.043 138.045Z" fill="white"/>
</g>
<defs>
<clipPath id="clip0_202_3">
<rect width="93" height="106" fill="white" transform="translate(57 51)"/>
</clipPath>
</defs>
</svg>
